<?xml version="1.0" encoding="UTF-8"?><svg preserveAspectRatio="xMidYMid" xmlns="http://www.w3.org/2000/svg" viewBox="0 0 155.28 94.63"><defs><style>.cls-1{fill:#5a5a5a;}</style></defs><g><path class="cls-1" d="M148.34,0h-75.34c-3.83,0-6.94,3.11-6.94,6.94v74.78h36.15s0,0,0,0h.07c0-1.16.1-2.3.29-3.3,1.58-9.1,9.46-15.72,18.71-15.72s17.13,6.62,18.71,15.65c.19,1.07.29,2.21.29,3.37h9.37c3.11,0,5.63-2.52,5.63-5.65V6.94c0-3.83-3.11-6.94-6.94-6.94ZM140.72,18.2v9.71h-58.23v-9.71h58.23ZM82.49,37.61h58.23v9.71h-58.23v-9.71Z"/><path class="cls-1" d="M11.94,15.94L0,50.18v31.54h12.2s0,0,0,0h.07c0-1.16.1-2.3.29-3.3,1.6-9.1,9.46-15.72,18.71-15.72s17.13,6.62,18.71,15.65c.19,1.02.29,2.11.29,3.37h10.02V11.52H18.51c-2.89,0-5.48,1.75-6.58,4.42ZM51.29,44.04c0,1.7-1.36,3.03-3.06,3.03H15.38c-2.16,0-3.64-2.18-2.81-4.17l6.48-20.45c.46-1.14,1.58-1.89,2.81-1.89h26.37c1.7,0,3.06,1.36,3.06,3.03v20.45Z"/><path class="cls-1" d="M31.28,68.76c-6.36,0-11.67,4.63-12.71,10.7-.14.7-.22,1.48-.22,2.26,0,7.11,5.8,12.91,12.93,12.91s12.93-5.8,12.93-12.91c0-.78-.05-1.55-.19-2.26-1.04-6.07-6.36-10.7-12.74-10.7Z"/><path class="cls-1" d="M121.29,68.76c-6.38,0-11.67,4.63-12.74,10.7-.12.7-.19,1.48-.19,2.26,0,7.11,5.8,12.91,12.93,12.91s12.93-5.8,12.93-12.91c0-.78-.05-1.55-.19-2.26-1.07-6.07-6.36-10.7-12.74-10.7Z"/></g></svg>