<?xml version="1.0" encoding="UTF-8"?><svg preserveAspectRatio="xMidYMid" xmlns="http://www.w3.org/2000/svg" viewBox="0 0 110.28 110.28"><defs><style>.cls-1{fill:#5a5a5a;}.cls-2{fill:#fff;}</style></defs><g><rect class="cls-1" width="110.28" height="110.28" rx="24.19" ry="24.19"/><path class="cls-2" d="M91.38,49.9c0,16.54-18.77,36.86-38.78,39.62-2.57.35,1.6-9.4-1.53-9.84-18.33-2.53-32.83-14.29-32.83-29.79,0-16.54,16.37-29.94,36.57-29.94s36.57,13.41,36.57,29.94Z"/><path class="cls-1" d="M30.77,42.56h3.38c.28,0,.5.22.5.5v12.44c0,.28.22.5.5.5h6.71c.28,0,.5.22.5.5v2.94c0,.28-.22.5-.5.5h-11.09c-.28,0-.5-.22-.5-.5v-16.38c0-.28.22-.5.5-.5Z"/><path class="cls-1" d="M44.47,42.56h3.58c.28,0,.5.22.5.5v16.38c0,.28-.22.5-.5.5h-3.58c-.28,0-.5-.22-.5-.5v-16.38c0-.28.22-.5.5-.5Z"/><path class="cls-1" d="M51.34,42.56h3.75c.17,0,.32.08.41.22l5.77,8.57c.28.41.92.21.91-.28l-.06-8.01c0-.28.22-.5.5-.5h3.13c.28,0,.5.22.5.5v16.38c0,.28-.22.5-.5.5h-3.86c-.17,0-.33-.09-.42-.23l-6.36-9.86s-.04,1.13-.04,3.12v6.47c0,.28-.22.5-.5.5h-3.26c-.28,0-.5-.22-.5-.5v-16.38c0-.28.22-.5.5-.5Z"/><path class="cls-1" d="M69.2,42.56h10.59c.28,0,.5.22.5.5v3.08c0,.28-.22.5-.5.5h-6.67c-.28,0-.5.22-.5.5v1.84c0,.28.22.5.5.5h6.69c.28,0,.5.22.5.5v2.76c0,.28-.22.5-.5.5h-6.69c-.28,0-.5.22-.5.5v1.72c0,.28.22.5.5.5h6.69c.28,0,.5.22.5.5v2.98c0,.28-.22.5-.5.5h-10.62c-.28,0-.5-.22-.5-.5v-16.38c0-.28.22-.5.5-.5Z"/></g></svg>