<?xml version="1.0" encoding="UTF-8"?><svg preserveAspectRatio="xMidYMid" xmlns="http://www.w3.org/2000/svg" viewBox="0 0 115.07 124.84"><defs><style>.cls-1{fill:#5a5a5a;}</style></defs><g><path class="cls-1" d="M113.59,66.31c-.83-2-1.96-3.86-3.33-5.58-1.37-1.72-2.97-3.3-4.75-4.75l-.11-.09.11.09c-5.35-4.35-12.4-7.68-20.56-10.01h0c-8.17-2.32-17.49-3.62-27.4-3.62-7.55,0-14.76.75-21.38,2.14-6.62,1.38-12.65,3.4-17.85,5.97h0c-5.2,2.58-9.61,5.72-12.89,9.55l.06-.07-.06.07c-1.64,1.92-2.99,4.02-3.94,6.31C.53,68.6,0,71.07,0,73.61v19.96c0,2.54.53,5.01,1.48,7.3.83,2,1.96,3.86,3.33,5.58,1.37,1.72,2.97,3.3,4.75,4.75h0c5.35,4.35,12.4,7.68,20.56,10.02h.04c8.16,2.32,17.47,3.62,27.36,3.62h0c7.55,0,14.76-.75,21.37-2.14,6.62-1.38,12.65-3.4,17.85-5.97h0c5.2-2.58,9.61-5.72,12.89-9.55h0c1.64-1.92,2.99-4.02,3.93-6.31l-.06.14.06-.14c.95-2.29,1.48-4.76,1.48-7.3v-19.96c0-2.54-.53-5.01-1.48-7.3ZM12.87,103.97c-.6-.57-1.17-1.15-1.67-1.74-1.19-1.4-2.09-2.83-2.69-4.27-.6-1.44-.9-2.9-.9-4.39v-9.05c1.17,1.44,2.54,2.8,4.1,4.07.37.3.76.6,1.15.9v14.48h0ZM23.91,110.93c-.76-.33-1.51-.67-2.22-1.03-1.67-.83-3.21-1.71-4.61-2.63v-15.04c2.09,1.2,4.38,2.3,6.83,3.29v15.4ZM37.57,115.21c-3.46-.73-6.71-1.65-9.7-2.72h.25v-15.43c.96.32,1.95.62,2.96.91,2.08.59,4.26,1.11,6.5,1.56v15.68ZM55.43,117.2c-4.76-.1-9.33-.53-13.66-1.23v-15.7c4.35.67,8.93,1.07,13.66,1.16v15.77ZM73.82,115.88c-4.48.75-9.23,1.22-14.19,1.31v-15.75c4.92-.1,9.68-.52,14.19-1.24v15.68h0ZM87.48,112.4c-1.48.54-3.03,1.04-4.63,1.49-1.55.44-3.17.84-4.82,1.2v-15.66c3.33-.69,6.49-1.54,9.46-2.54v15.51h0ZM98.52,106.92c-1.99,1.36-4.28,2.63-6.83,3.78v-15.39c1.23-.51,2.42-1.04,3.56-1.61,1.14-.57,2.23-1.16,3.27-1.77v14.99ZM107.45,93.57c0,1.49-.3,2.95-.9,4.39-.77,1.87-2.06,3.72-3.83,5.5v-14.2h-.25c1.74-1.33,3.29-2.75,4.59-4.27.13-.16.26-.31.39-.47v9.05h0ZM106.55,78c-1.04,2.52-3.02,5.02-5.86,7.33-4.25,3.47-10.43,6.48-17.84,8.59-7.42,2.11-16.07,3.33-25.32,3.33-14.08,0-26.82-2.84-35.85-7.32-4.52-2.23-8.1-4.87-10.48-7.67-1.19-1.4-2.09-2.83-2.69-4.27-.6-1.44-.9-2.9-.9-4.39s.3-2.94.9-4.39c1.04-2.52,3.02-5.02,5.86-7.33,4.26-3.47,10.43-6.49,17.84-8.6,7.42-2.11,16.08-3.33,25.32-3.33,14.08,0,26.81,2.84,35.85,7.32,4.52,2.23,8.1,4.87,10.48,7.67,1.19,1.4,2.09,2.83,2.69,4.27.6,1.44.9,2.9.9,4.39,0,1.49-.3,2.94-.9,4.39Z"/><path class="cls-1" d="M74.67,20.97l14.06,3.73c.37.07.66.37.75.74l3.71,14.06c.1.41.46.7.89.7s.79-.29.88-.7l3.71-14.06c.08-.37.38-.67.75-.74l14.06-3.73c.41-.08.7-.44.7-.87s-.29-.79-.7-.87l-14.06-3.73c-.37-.08-.67-.37-.75-.74l-3.71-14.06c-.1-.41-.46-.7-.88-.7s-.79.3-.89.7l-3.71,14.06c-.08.37-.38.66-.75.74l-14.06,3.73c-.41.08-.7.44-.7.87s.29.79.7.87Z"/><path class="cls-1" d="M91.83,76.5l-6.38-1.69c-.17-.04-.3-.17-.34-.34l-1.68-6.38c-.04-.19-.21-.32-.4-.32s-.36.13-.4.32l-1.68,6.38c-.04.17-.17.3-.34.34l-6.38,1.69c-.19.04-.32.2-.32.39s.13.36.32.4l6.38,1.69c.17.03.3.17.34.34l1.68,6.38c.05.19.21.32.4.32s.36-.13.4-.32l1.68-6.38c.04-.17.17-.31.34-.34l6.38-1.69c.18-.04.32-.2.32-.4,0-.19-.13-.36-.32-.39Z"/><path class="cls-1" d="M4.34,34.15l10.05,2.66c.27.06.47.27.54.53l2.65,10.05c.07.3.33.5.63.5s.56-.21.63-.5l2.65-10.05c.06-.26.27-.48.54-.53l10.05-2.66c.29-.06.5-.33.5-.63s-.21-.56-.5-.62l-10.05-2.67c-.26-.06-.48-.27-.54-.53l-2.65-10.05c-.07-.29-.33-.5-.63-.5s-.56.21-.63.5l-2.65,10.05c-.06.27-.27.47-.54.53l-10.05,2.67c-.3.06-.5.32-.5.62s.21.56.51.63Z"/><path class="cls-1" d="M59.48,56.94c-5.36.17-8.05.16-13.42-.06-.3-.01-.51.15-.52.42-.69,11.83-1.03,17.74-1.72,29.58-.02.27.21.46.57.47,3.69.15,5.54.19,9.23.18.36,0,.58-.18.58-.45,0-3.79,0-5.68.02-9.46,0-.18.12-.27.34-.28,2.24,0,3.35-.03,5.59-.1,9.22-.3,13.57-5.25,12.91-11.05-.68-5.89-5.39-9.53-13.57-9.26ZM59.39,70.59c-1.94.06-2.9.07-4.84.08-.21,0-.32-.09-.32-.27,0-2.56,0-3.84,0-6.41,0-.18.1-.27.31-.27,1.86,0,2.78-.02,4.64-.08,2.83-.08,4.5,1.16,4.62,3.27.12,2.11-1.46,3.59-4.42,3.68Z"/></g></svg>