<?xml version="1.0" encoding="UTF-8"?><svg id="_レイヤー_2" xmlns="http://www.w3.org/2000/svg" viewBox="0 0 1233.82 433.32"><defs><style>.cls-1{fill:none;stroke:#004ba0;stroke-miterlimit:10;stroke-width:2px;}</style></defs><g id="_商品ニオイヤー2"><path class="cls-1" d="M1,0c0,128.78,255.54,321.92,382.79,392.85,12.78,7.12,44.65,20.83,76.44,9.3,22.87-8.3,44.88-29.77,50.32-59.1,6.02-32.51-9.75-66.23-38.1-82.34-37.84-21.5-84.6-3.98-105.39,25.79-15.24,21.81-13.54,45.93-12.81,52.7,4.01,37.21,33.77,58.66,42.65,65.75,30.98,24.73,83.53,34.35,129.48,22.04,36.8-9.86,61.51-24.57,73.14-31.66,108.47-66.15,244.75,26.11,442.63,13.9,43.81-2.7,110.38-11.75,191.3-43.79"/></g></svg>