<?xml version="1.0" encoding="UTF-8"?><svg id="_レイヤー_2" xmlns="http://www.w3.org/2000/svg" viewBox="0 0 969.77 433.32"><defs><style>.cls-1{fill:none;stroke:#004ba0;stroke-miterlimit:10;stroke-width:2px;}</style></defs><g id="_商品ニオイヤー2"><path class="cls-1" d="M968.77,0c0,128.78-255.54,321.92-382.79,392.85-12.78,7.12-44.65,20.83-76.44,9.3-22.87-8.3-44.88-29.77-50.32-59.1-6.02-32.51,9.75-66.23,38.1-82.34,37.84-21.5,84.6-3.98,105.39,25.79,15.24,21.81,13.54,45.93,12.81,52.7-4.01,37.21-33.77,58.66-42.65,65.75-30.98,24.73-83.53,34.35-129.48,22.04-27.53-7.38-26.24-14.82-73.14-31.66-13.46-4.83-46.27-16.61-78.11-20.68-60.02-7.68-85.67,15.99-141.67,23.85-33.46,4.7-83.88,4.61-150.09-22.44"/></g></svg>