<?xml version="1.0" encoding="UTF-8"?><svg preserveAspectRatio="xMidYMid" id="l2" xmlns="http://www.w3.org/2000/svg" viewBox="0 0 278.81 52.69"><defs><style>.cls-1{fill:#717272;}.cls-2{opacity:.85;}.cls-3{fill:#1b4b91;}</style></defs><g id="_トップページ"><rect class="cls-3" x="20.29" y=".66" width="10.82" height="6.59"/><line class="cls-3" x1="6.76" y1="10.14"/><polygon class="cls-3" points="27.06 52.69 27.06 .66 20.29 .66 20.29 20.48 21 43.61 27.06 52.69"/><polygon class="cls-3" points="0 42.55 0 0 6.76 10.14 6.76 52.69 0 42.55"/><path class="cls-3" d="M30.19,26.96c.31.03.61.04.93.04,5.6,0,10.15-4.42,10.15-9.88s-4.54-9.88-10.15-9.88V.66c9.34,0,16.91,7.37,16.91,16.47,0,8-5.86,14.66-13.62,16.15l-4.21-6.32Z"/><path class="cls-3" d="M37.05,25.13c-1.67,1.18-3.72,1.87-5.94,1.87-.31,0-.62-.02-.93-.04l17.16,25.73v-12.12l-10.29-15.44Z"/><polygon class="cls-3" points="27.06 40.57 0 0 0 12.12 27.06 52.69 27.06 52.69 27.06 40.57"/><g class="cls-2"><path class="cls-1" d="M266.66,42.78c.43,0,.78-.35.78-.77v-.64c0-.43-.35-.77-.77-.77h-7.62c-.43-.01-.77.33-.77.76v.64c0,.43.34.78.77.78h7.62Z"/><path class="cls-1" d="M77.81,30.66l-12.39-.02v2.4s9.66.02,9.66.02c.26,0,.46.21.46.47v6.12c-.01.25-.22.46-.47.46l-10.35-.02c-.26,0-.46-.21-.46-.46v-6.12c.01-.26.22-.47.47-.47h.69s0-2.4,0-2.4h-3.41c-.85,0-1.55.68-1.55,1.54l-.03,18.19c0,.85.69,1.55,1.54,1.55h4s0-2.28,0-2.28h-1.28c-.26,0-.46-.21-.46-.46v-6.12c.01-.26.22-.47.47-.47l10.35.02c.26,0,.46.21.46.47v6.12c-.01.25-.22.46-.47.46l-9.08-.02v2.29s11.8.02,11.8.02c.86,0,1.55-.69,1.55-1.54l.03-18.19c0-.86-.69-1.55-1.54-1.55Z"/><path class="cls-1" d="M126.33,30.92h-7.25s1.09,2.2,1.09,2.2h4.66c.14,0,.25.13.25.26v2.11c0,.14-.12.26-.26.26h-5.04c-.14,0-.25-.12-.25-.27v-2.11c0-.14.12-.25.26-.25h.38s0-2.21,0-2.21h-2.97c-.47,0-.85.38-.85.85l-.02,10.01c0,.47.38.85.85.85h3.29s0-2.04,0-2.04h-.7c-.14,0-.25-.12-.25-.26v-2.2c0-.14.12-.25.26-.25h5.04c.14,0,.25.12.25.26v2.2c0,.14-.12.26-.26.26h-4.34s-1.09,2.04-1.09,2.04h6.92c1.56.01,1.94-.37,1.94-.84l.02-10.01c0-.47-.38-.86-1.94-.86Z"/><path class="cls-1" d="M93.76,52.02c.43,0,.77-.35.78-.78l.03-19.78c0-.43-.34-.78-.77-.78h-2.18c-.43,0-.78.34-.78.77l-.03,19.78c0,.43.35.78.78.78h2.18Z"/><path class="cls-1" d="M111.69,48.22c.43,0,.77-.35.77-.78l.02-14.89c0-.43-.34-.77-.77-.77h-2.18c-.43,0-.77.34-.78.76l-.02,14.89c0,.43.35.78.77.78h2.18Z"/><path class="cls-1" d="M123.42,51.64c.43,0,.77-.35.78-.78l.03-19.15c0-.43-.35-.77-.77-.77h-2.18c-.43,0-.77.33-.77.76l-.03,19.15c0,.43.34.78.77.78h2.18Z"/><path class="cls-1" d="M85.56,48.82c.4.14.84-.07.98-.48l4.45-12.72c.14-.4-.07-.84-.47-.98l-2.06-.73c-.4-.14-.84.07-.99.48l-4.44,12.73c-.14.4.07.84.47.98l2.06.72Z"/><path class="cls-1" d="M103.15,36.03c.43,0,.77-.35.77-.77v-.63c0-.43-.34-.78-.77-.78l-20.97-.04c-.43,0-.77.35-.77.78v.63c0,.43.34.78.77.78l20.97.04Z"/><rect class="cls-1" x="109.49" y="28.5" width="2.18" height="8.67" rx=".77" ry=".77" transform="translate(77.57 143.36) rotate(-89.9)"/><path class="cls-1" d="M122.03,39.88h.64c.43,0,.77.35.77.77v9.3c0,.43-.35.77-.77.77h-.64c-.43,0-.77-.35-.77-.77v-9.31c0-.42.34-.77.77-.77Z" transform="translate(76.84 167.57) rotate(-89.9)"/><path class="cls-1" d="M122.01,44.05h.64c.43,0,.77.35.77.77v11.49c0,.43-.35.77-.77.77h-.64c-.42,0-.77-.34-.77-.77v-11.49c0-.42.34-.77.77-.77Z" transform="translate(71.57 172.82) rotate(-89.9)"/><path class="cls-1" d="M144.25,51.68c.43,0,.77-.35.78-.78l.03-18.42c0-.42-.35-.77-.77-.77h-2.18c-.43,0-.77.34-.77.76l-.03,18.42c0,.43.35.78.77.78h2.18Z"/><path class="cls-1" d="M159.53,51.7c.43,0,.77-.35.77-.78l.03-19.42c0-.43-.34-.77-.77-.77h-2.19c-.43,0-.77.34-.77.76l-.03,19.42c0,.43.34.78.77.78h2.19Z"/><path class="cls-1" d="M180.88,34.51h4.02c.43,0,.78.35.78.78v2.18c0,.43-.35.78-.78.78h-4.01c-.43,0-.78-.35-.78-.78v-2.18c0-.43.35-.77.77-.77Z" transform="translate(146.2 219.2) rotate(-89.9)"/><path class="cls-1" d="M206.33,32.99h7.42c.43,0,.78.35.78.78v2.18c0,.43-.35.78-.78.78h-7.42c-.43,0-.77-.35-.77-.77v-2.18c0-.43.35-.77.77-.77Z" transform="translate(174.84 244.84) rotate(-89.9)"/><rect class="cls-1" x="214.94" y="39.13" width="21.21" height="3.73" rx=".78" ry=".78" transform="translate(184.17 266.47) rotate(-89.9)"/><path class="cls-1" d="M241.35,29.89h2.55c.43,0,.77.35.77.77v2.18c0,.42-.34.77-.77.77h-2.56c-.42,0-.77-.34-.77-.77v-2.18c0-.42.34-.77.77-.77Z" transform="translate(210.46 274.33) rotate(-89.9)"/><path class="cls-1" d="M248.41,51.42c.43,0,.77-.35.77-.78v-7.82c.01-.42-.33-.77-.76-.77h-2.18c-.43,0-.78.34-.78.77v7.82c-.01.43.33.78.76.78h2.18Z"/><path class="cls-1" d="M253.78,48.47c0-.43-.35-.78-.78-.78h-6.77c-.43-.01-.77.33-.77.76v2.18c0,.43.34.78.76.78h6.77c.43.01.78-.34.78-.77v-2.18Z"/><path class="cls-1" d="M214.13,35.74h12.88c.43,0,.78.35.78.78v2.18c0,.43-.35.77-.77.77h-12.88c-.43,0-.77-.35-.77-.77v-2.18c0-.43.35-.77.77-.77Z" transform="translate(182.6 258.11) rotate(-89.9)"/><path class="cls-1" d="M189.53,35.31c.43,0,.78-.34.78-.77l-1.91-3.06c-.41-.5-.35-.78-.77-.78h-2.59c-.43,0-.78.34-.78.77l1.91,3.06c0,.43.34.77.77.77h2.59Z"/><path class="cls-1" d="M194.5,35.32c.43,0,.78-.34.78-.77l-1.9-3.06c-.41-.5-.35-.78-.78-.78h-2.59c-.43,0-.77.34-.77.77l1.91,3.06c0,.43.34.77.77.77h2.59Z"/><path class="cls-1" d="M195.9,35.32c-.43,0-.77-.34-.77-.77l1.91-3.05c.41-.5.35-.78.78-.78h2.59c.43,0,.77.35.77.78l-1.91,3.05c0,.43-.35.77-.78.77h-2.59Z"/><rect class="cls-1" x="187.84" y="46.06" width="8.13" height="3.73" rx=".77" ry=".77" transform="translate(143.66 239.76) rotate(-89.9)"/><path class="cls-1" d="M192.95,45.9c.43,0,.77-.35.77-.77l4.23-7.08c0-.42-.35-.77-.77-.77h-2.18c-.43,0-.78.34-.78.76l-4.23,7.08c0,.43.34.78.77.78h2.18Z"/><path class="cls-1" d="M217.17,51.6c.43,0,.36-.37.78-.78l4.5-6.67c0-.43-.35-.78-.77-.78h-2.18c-.43,0-.32.02-.78.48l-4.87,6.96c0,.43.35.78.77.78h2.55Z"/><path class="cls-1" d="M238.72,51.5c.43,0,.35-.38.77-.77l5.15-10.59c0-.43-.35-.78-.77-.78h-2.18c-.43,0-.32.02-.77.48l-5.51,10.88c0,.42.35.77.78.77h2.54Z"/><path class="cls-1" d="M259.13,51.17c.43,0,.35-.37.77-.77l2.24-8.61c0-.42-.35-.77-.77-.77h-2.18c-.42,0-.32.02-.77.49l-2.61,8.89c0,.42.35.77.77.77h2.55Z"/><path class="cls-1" d="M270.14,50.72c.43,0,.36-.37.78-.77l2.01-6.13c0-.43-.35-.77-.77-.77h-2.18c-.43,0-.32.01-.77.48l-2.38,6.41c0,.43.35.78.77.78h2.54Z"/><rect class="cls-1" x="198.77" y="34.55" width="5.56" height="3.73" rx=".78" ry=".78" transform="translate(164.8 237.9) rotate(-89.9)"/><path class="cls-1" d="M166.49,48.09c.43,0,.77-.34.77-.77l5.2-10.87c0-.43-.35-.78-.77-.78h-2.18c-.43,0-.78.34-.78.77l-5.21,10.87c0,.43.35.77.77.77h2.18Z"/><path class="cls-1" d="M142.88,39.58h.64c.43,0,.77.35.77.77v20.49c0,.43-.35.77-.77.77h-.64c-.42,0-.77-.34-.77-.77v-20.5c0-.42.34-.77.77-.77Z" transform="translate(92.36 193.72) rotate(-89.9)"/><path class="cls-1" d="M177.47,51.75c.43,0,.77-.34.77-.77v-.64c0-.43-.34-.77-.77-.77l-20.08-.03c-.43,0-.78.35-.78.77v.64c0,.43.34.77.77.77l20.08.03Z"/><path class="cls-1" d="M151.84,33.91c.42,0,.77-.34.78-.77v-.63c0-.43-.35-.78-.77-.78l-17.21-.03c-.43,0-.78.35-.78.77v.63c0,.43.35.77.77.77l17.21.03Z"/><path class="cls-1" d="M177.78,33.01c.43,0,.77-.35.77-.78v-.63c0-.43-.34-.78-.77-.78l-20.12-.03c-.43,0-.77.35-.77.78v.63c0,.43.34.78.77.78l20.12.03Z"/><path class="cls-1" d="M214.1,32.59c.43,0,.78-.34.78-.77v-.64c0-.42-.34-.77-.77-.77h-7.8c-.43-.01-.77.33-.77.76v.64c0,.43.34.77.77.77h7.8Z"/><path class="cls-1" d="M228.06,32.61c.43,0,.77-.34.77-.77v-.64c0-.42-.34-.77-.77-.77l-10.62-.02c-.43,0-.78.35-.78.77v.64c0,.43.34.77.77.77l10.62.02Z"/><rect class="cls-1" x="221.65" y="32.23" width="2.18" height="12.17" rx=".77" ry=".77" transform="translate(184.05 260.99) rotate(-89.9)"/><path class="cls-1" d="M214.13,39.66c.43,0,.77-.35.77-.78v-.63c0-.43-.34-.78-.77-.78h-4.89c-.43,0-.78.34-.78.77v.63c0,.43.35.78.77.78h4.89Z"/><path class="cls-1" d="M214.9,38.32c0-.43-.34-.78-.77-.78h-1.02c-.43,0-.77.34-.77.77l-.02,9.2c0,.43.34.78.77.78h1.02c.43,0,.77-.34.77-.77l.02-9.2Z"/><path class="cls-1" d="M211.02,38.31c0-.43-.35-.78-.77-.78h-1.03c-.43,0-.77.34-.77.77l-.02,9.2c0,.43.34.78.77.78h1.03c.43,0,.77-.34.77-.77l.02-9.2Z"/><path class="cls-1" d="M214.11,48.29c.43,0,.77-.35.77-.77v-.63c0-.43-.34-.78-.77-.78h-4.89c-.43,0-.78.34-.78.77v.63c0,.43.35.78.77.78h4.89Z"/><path class="cls-1" d="M202.34,35.85c.43,0,.77-.35.77-.77v-.63c0-.43-.34-.78-.77-.78l-20.53-.03c-.43,0-.78.35-.78.77v.63c0,.43.35.78.77.78l20.53.03Z"/><path class="cls-1" d="M202.66,46.11c.43,0,.77-.35.77-.77v-.64c0-.42-.34-.77-.77-.77l-20.87-.03c-.43,0-.78.35-.78.77v.64c0,.42.35.77.77.77l20.87.03Z"/><path class="cls-1" d="M190.45,47.93h.63c.43,0,.78.35.78.78v4.46c0,.43-.35.77-.77.77h-.64c-.43,0-.77-.35-.77-.77v-4.46c0-.43.35-.78.78-.78Z" transform="translate(139.52 241.61) rotate(-89.9)"/><path class="cls-1" d="M191.47,32.7h.63c.43,0,.78.35.78.78v9.76c0,.43-.35.77-.77.77h-.63c-.43,0-.77-.35-.77-.77v-9.76c0-.43.35-.78.78-.78Z" transform="translate(153.11 230.08) rotate(-89.9)"/><path class="cls-1" d="M230.82,33.23h5.1c.43,0,.77.35.77.77v2.18c0,.43-.35.78-.78.78h-5.1c-.43,0-.77-.35-.77-.77v-2.18c0-.43.35-.77.77-.77Z" transform="translate(197.89 268.41) rotate(-89.9)"/><path class="cls-1" d="M240.63,39.16c.43,0,.78-.35.78-.78v-3.28c0-.43-.34-.78-.77-.78h-1.42c-.42,0-.77.34-.77.77v3.28c0,.43.34.78.76.78h1.42Z"/><path class="cls-1" d="M238.17,35.14h.97c.43,0,.78.35.78.78v3.96c0,.43-.35.78-.78.78h-.97c-.43,0-.78-.35-.78-.78v-3.96c0-.43.35-.77.77-.77Z" transform="translate(200.37 276.49) rotate(-89.9)"/><path class="cls-1" d="M243.84,35.13h3.28c.43,0,.78.35.78.78v1.68c0,.43-.35.78-.78.78h-3.28c-.43,0-.78-.35-.78-.78v-1.68c0-.43.35-.78.78-.78Z" transform="translate(208.33 282.17) rotate(-89.9)"/><path class="cls-1" d="M243.87,37.42c0-.42.35-.77.78-.77h4.32c.43,0,.77.36.77.78v.97c0,.43-.35.78-.78.78h-4.32c-.43,0-.77-.36-.77-.79v-.97Z"/><path class="cls-1" d="M249.49,33.27h5.1c.43,0,.77.35.77.77v2.18c0,.43-.35.78-.78.78h-5.1c-.43,0-.78-.35-.78-.78v-2.18c0-.43.35-.78.78-.78Z" transform="translate(216.49 287.11) rotate(-89.9)"/><path class="cls-1" d="M266.94,42.72c.43,0,.77-.35.77-.77v-6.8c.01-.42-.33-.77-.76-.77h-2.18c-.43,0-.78.34-.78.76v6.8c-.01.43.33.78.76.78h2.18Z"/><path class="cls-1" d="M270.32,42h11.99c.43,0,.78.35.78.78v2.18c0,.43-.35.78-.78.78h-11.99c-.43,0-.78-.35-.78-.78v-2.18c0-.43.35-.78.78-.78Z" transform="translate(231.99 320.12) rotate(-89.9)"/><rect class="cls-1" x="265.43" y="37.02" width="11.3" height="3.73" rx=".78" ry=".78" transform="translate(231.75 309.91) rotate(-89.9)"/><path class="cls-1" d="M270.29,36.27c.18.39.64.55,1.03.36l6.65-2.91c.38-.19.36-.52.36-1.03l.11-2.76c-.18-.39-.65-.54-1.03-.36l-7.7,3.69c-.39.18-.55.65-.37,1.03l.95,1.97Z"/><rect class="cls-1" x="255.65" y="36.95" width="8.87" height="3.73" rx=".77" ry=".77" transform="translate(220.84 298.82) rotate(-89.9)"/><rect class="cls-1" x="241.47" y="21.87" width="2.19" height="22.08" rx=".78" ry=".78" transform="translate(209.25 275.43) rotate(-89.9)"/><path class="cls-1" d="M240.55,34.97h.63c.43,0,.77.35.77.77v14.66c0,.43-.35.77-.77.77h-.64c-.42,0-.77-.34-.77-.77v-14.66c0-.43.35-.78.78-.78Z" transform="translate(197.39 283.87) rotate(-89.9)"/><path class="cls-1" d="M267.24,32.82c.43,0,.77-.35.77-.77v-.64c0-.43-.34-.78-.77-.78l-9.06-.02c-.43,0-.78.35-.78.78v.64c0,.42.35.77.78.77l9.06.02Z"/><path class="cls-1" d="M266.67,36.54c.43,0,.78-.34.78-.77v-.64c0-.43-.35-.78-.77-.78h-7.62c-.43-.01-.77.33-.77.76v.64c0,.43.34.77.77.77h7.62Z"/><path class="cls-1" d="M278.04,39.32c.43,0,.77-.35.77-.77v-.63c0-.43-.34-.78-.77-.78h-8.05c-.43-.01-.77.33-.77.76v.63c0,.43.34.78.77.78h8.05Z"/><path class="cls-1" d="M235.06,46.55h.63c.43,0,.77.35.77.77v6.23c0,.43-.35.78-.78.78h-.63c-.43,0-.78-.35-.78-.78v-6.23c0-.43.35-.78.78-.78Z" transform="translate(184.54 285.73) rotate(-89.9)"/><path class="cls-1" d="M175.24,37.73c.43,0,.78-.34.78-.77v-.63c0-.43-.34-.78-.77-.78l-11.87-.02c-.43,0-.78.35-.78.78v.63c0,.43.34.77.77.77l11.87.02Z"/><path class="cls-1" d="M168.98,33.04h.63c.43,0,.78.35.78.78v15.05c0,.43-.35.78-.78.78h-.64c-.43,0-.78-.35-.78-.78v-15.05c0-.43.35-.78.78-.78Z" transform="translate(127.67 210.57) rotate(-89.9)"/><path class="cls-1" d="M163.72,44.2h.64c.43,0,.77.35.77.77v4.55c0,.42-.34.77-.77.77h-.64c-.43,0-.77-.35-.77-.77v-4.55c0-.43.35-.77.77-.77Z" transform="translate(116.52 211.21) rotate(-89.9)"/><path class="cls-1" d="M163.78,39.09c.43,0,.77-.35.77-.78l3.06-5.95c0-.43-.35-.77-.77-.77h-2.18c-.43,0-.77.34-.77.76l-3.06,5.95c0,.43.34.78.77.78h2.18Z"/><path class="cls-1" d="M163.6,39.33c.43,0,.77-.34.77-.77v-.64c0-.42-.34-.77-.77-.77h-4.55c-.43,0-.78.34-.78.76v.64c0,.43.34.77.77.77h4.55Z"/><path class="cls-1" d="M173.44,48.1c-.43,0-.77-.35-.77-.77l-3.34-6.24c0-.43.35-.78.77-.78h2.18c.43,0,.77.35.77.78l3.35,6.24c0,.43-.35.77-.78.77h-2.18Z"/><path class="cls-1" d="M174.74,45.05h.64c.42,0,.77.34.77.77v2.88c0,.42-.34.77-.77.77h-.64c-.43,0-.77-.35-.77-.77v-2.88c0-.43.35-.77.77-.77Z" transform="translate(127.51 222.25) rotate(-89.9)"/><path class="cls-1" d="M114.13,40.77c.43,0,.77-.35.78-.77v-.64c0-.43-.35-.77-.77-.77h-7.12c-.43-.01-.78.33-.78.76v.64c0,.42.35.77.77.77h7.12Z"/><path class="cls-1" d="M106.41,46.94h2.88c.43,0,.77.35.77.77v1.8c0,.43-.35.77-.77.77h-2.88c-.43,0-.77-.35-.77-.77v-1.8c0-.43.35-.77.77-.77Z" transform="translate(-3.28 8.05) rotate(-4.21)"/><path class="cls-1" d="M100.41,48.03c.43,0,.77-.35.77-.78v-.63c0-.43-.34-.78-.77-.78l-15.51-.03c-.43,0-.78.35-.78.77v.63c0,.43.34.78.77.78l15.51.03Z"/><path class="cls-1" d="M85.88,48.91c.43-.06.72-.45.66-.87l-.09-.63c-.06-.43-.82-1.42-1.24-1.36l-3.33,1.36c-.42.06-.72.45-.66.87l.09.63c.06.43.45.72.87.66l3.7-.65Z"/><path class="cls-1" d="M99.97,48.84c-.4.14-.84-.07-.98-.48l-4.4-12.74c-.14-.4.07-.84.48-.98l2.06-.72c.4-.14.84.07.98.48l4.4,12.74c.14.4-.07.84-.48.98l-2.06.72Z"/><path class="cls-1" d="M99.64,48.94c-.42-.07-.72-.46-.66-.87l.09-.63c.06-.43.82-1.42,1.24-1.36l3.33,1.37c.42.06.72.45.66.87l-.09.63c-.06.43-.45.72-.87.65l-3.7-.66Z"/><path class="cls-1" d="M108.22,46.95l.32,3.27s3.14-.45,4.6-1.17c1.45-.72,1.88-1.3,2.17-1.65.38-.44.33-1.48-.35-2.17-.68-.68-1.32-.6-2.41.12-1.09.73-3.93,1.51-4.33,1.6Z"/><path class="cls-1" d="M208.15,38.11h3.72s.2.89-.76,2.5c-.96,1.6-2.77,4.69-4.17,5.75-.31.24-.78.31-.78-.51s0-4.03,0-4.51.27-.41.55-.74c.27-.34,1.44-1.3,1.44-2.49Z"/><path class="cls-1" d="M68.51,9.44c.17,0,.31-.14.31-.31v-1.99c0-.17-.14-.3-.31-.3h-6.58c-.17-.01-.32.12-.32.29v1.99c0,.17.14.31.31.31h6.58Z"/><rect class="cls-1" x="74.67" y="1.83" width="2.59" height="12.65" rx=".31" ry=".31" transform="translate(67.69 84.1) rotate(-89.9)"/><path class="cls-1" d="M128.26,12.85c.17,0,.3-.13.3-.31v-1.99c0-.17-.13-.31-.3-.31l-15.8-.03c-.17,0-.31.14-.31.31v1.99c0,.18.14.31.31.31l15.8.03Z"/><path class="cls-1" d="M130.38,16.35c.17,0,.31-.13.31-.31v-1.97c0-.18-.14-.32-.31-.32l-20.94-.03c-.17,0-.31.14-.31.32v1.97c0,.19.13.31.3.31l20.94.03Z"/><path class="cls-1" d="M121.61,4.79c.15-.07.23-.26.16-.42l-.77-1.82c-.06-.16-.25-.24-.41-.17l-11.12,4.67c-.16.07-.23.25-.17.4l.78,1.84c.06.16.24.24.4.17l11.12-4.66Z"/><path class="cls-1" d="M119.57,4.79c-.15-.07-.24-.26-.16-.42l.78-1.82c.06-.16.25-.24.4-.17l11.1,4.7c.16.07.24.25.17.4l-.78,1.84c-.06.16-.24.24-.41.16l-11.1-4.7Z"/><path class="cls-1" d="M106.17,9.5c.17,0,.31-.14.31-.31v-1.99c0-.17-.14-.3-.31-.3l-20.39-.03c-.17,0-.31.13-.31.3v1.99c0,.17.14.31.31.31l20.39.03Z"/><path class="cls-1" d="M94.92,14.35c.17,0,.32-.14.32-.3v-1.99c0-.18-.14-.31-.31-.31l-9.15-.02c-.17,0-.31.13-.31.31v1.99c0,.16.14.3.31.3l9.15.02Z"/><path class="cls-1" d="M89.35,17.54h1.97c.17,0,.32.14.32.32v9.15c0,.17-.14.31-.31.31h-1.97c-.17,0-.31-.14-.31-.31v-9.15c0-.17.14-.32.32-.32Z" transform="translate(67.76 112.73) rotate(-89.9)"/><path class="cls-1" d="M106.94,23.76c.17,0,.31-.14.31-.31v-.89c0-.17-.14-.31-.31-.31h-6.37c-.18-.01-.31.13-.31.3v.89c0,.17.14.31.31.31h6.37Z"/><path class="cls-1" d="M81.97,14.12c.17,0,.31-.14.31-.31v-1.99c0-.16-.14-.32-.31-.32l-12.02-.02c-.18,0-.31.15-.31.32v1.99c0,.16.13.31.31.31l12.02.02Z"/><path class="cls-1" d="M73.18,4.79c.06-.17-.02-.35-.18-.4l-1.86-.68c-.16-.06-.34.02-.41.19l-1.84,5.22c-.05.16.02.34.19.4l1.86.69c.16.05.34-.04.4-.2l1.83-5.21Z"/><path class="cls-1" d="M103.79,3.95c-.11-.14-.31-.16-.44-.05l-1.24,1.07c-.13.11-.15.31-.05.43l2.64,3.14c.11.13.31.14.44.05l1.25-1.07c.13-.12.15-.31.04-.45l-2.64-3.12Z"/><path class="cls-1" d="M76.09,13.03c.06-.16-.02-.34-.18-.4l-2.38-.95c-.16-.07-.33,0-.4.16l-4.3,10.78c-.07.16,0,.33.17.4l2.39.95c.16.07.34-.02.4-.18l4.31-10.77Z"/><path class="cls-1" d="M75.74,13.03c-.07-.16.01-.34.17-.4l2.39-.95c.16-.07.34,0,.4.17l4.27,10.8c.07.16,0,.33-.17.4l-2.38.95c-.16.07-.34-.02-.41-.18l-4.27-10.78Z"/><path class="cls-1" d="M65.89,10.2c.04-.18-.06-.35-.22-.38l-1.98-.56c-.17-.04-.34.06-.38.24l-2.87,11.51c-.04.16.06.33.23.38l1.99.56c.16.03.33-.07.37-.24l2.87-11.51Z"/><path class="cls-1" d="M64.53,9.65c-.04-.17.06-.33.23-.38l2-.56c.17-.04.33.06.38.23l2.04,7.96c.04.17-.06.33-.23.37l-1.99.56c-.17.05-.33-.05-.38-.23l-2.04-7.96Z"/><path class="cls-1" d="M66.8,23.69c.17,0,.31-.14.31-.31l.03-19.06c0-.16-.14-.3-.31-.3h-3.15c-.17,0-.31.13-.31.3l-.03,19.06c0,.17.13.31.31.31h3.15Z"/><path class="cls-1" d="M139.95,8.55c.18,0,.31-.14.31-.31v-1.99c0-.16-.13-.31-.31-.31h-5c-.17,0-.31.13-.31.3v1.99c0,.16.14.31.31.31h5Z"/><path class="cls-1" d="M143.87,6.54c.09-.14.05-.33-.09-.44l-3.14-.15c-.14-.09-.33-.05-.43.09l-6.81,10.47c-.09.14-.05.33.09.42l2.17,1.59c.14.11.33.07.43-.08l7.76-11.92Z"/><path class="cls-1" d="M139.2,11.38c-.07-.16-.01-.35.15-.42l1.85-.94c.15-.08.34-.01.42.15l2.73,5.55c.08.16.01.35-.14.42l-1.86.94c-.15.07-.34.01-.41-.15l-2.73-5.55Z"/><path class="cls-1" d="M140.95,8.2c.17,0,.31-.13.31-.31V3.44c0-.18-.13-.3-.3-.3h-3.15c-.16,0-.3.12-.3.3v4.45c0,.18.13.31.3.31h3.15Z"/><path class="cls-1" d="M140.92,23.43c.17,0,.31-.14.31-.32l.02-11.03c0-.16-.14-.31-.31-.31h-3.15c-.16,0-.3.14-.3.3l-.02,11.03c0,.18.14.32.3.32h3.15Z"/><path class="cls-1" d="M77.49,23.71c.18,0,.32-.14.32-.31l.03-19.06c0-.16-.14-.3-.32-.3h-3.15c-.17,0-.3.13-.3.3l-.03,19.06c0,.17.14.31.3.31h3.15Z"/><path class="cls-1" d="M85.24,16.52h10.03c.17,0,.31.14.31.31v3.15c0,.17-.14.31-.31.31h-10.04c-.17,0-.31-.14-.31-.31v-3.15c0-.17.14-.31.31-.31Z" transform="translate(71.7 108.63) rotate(-89.9)"/><path class="cls-1" d="M153.9,11.21c.17,0,.31-.14.31-.31v-1.99c0-.18-.14-.31-.3-.31l-9.16-.02c-.16,0-.3.13-.3.31v1.99c0,.16.14.31.3.31l9.16.02Z"/><path class="cls-1" d="M150.79,23.41c.17,0,.31-.14.31-.31l.03-19.77c0-.16-.14-.31-.31-.31h-3.15c-.18,0-.31.14-.31.3l-.03,19.77c0,.17.14.31.31.31h3.15Z"/><path class="cls-1" d="M114.64,23.69c.17,0,.31-.14.31-.31l3.47-9.35c0-.17-.14-.31-.31-.31h-4.11c-.17,0-.32.13-.32.3l-3.47,9.35c0,.17.14.31.3.31h4.11Z"/><path class="cls-1" d="M127.39,23.71c-.17,0-.31-.14-.31-.31l-1.94-6.14c0-.18.15-.31.31-.31h4.11c.17,0,.31.14.31.32l1.93,6.14c0,.17-.14.31-.31.31h-4.11Z"/><path class="cls-1" d="M103.75,23.79c.18,0,.31-.13.31-.31l-5.65-19.1c0-.16-.14-.3-.31-.3h-3.15c-.16,0-.3.13-.3.3l5.65,19.1c0,.18.13.31.31.31h3.15Z"/><path class="cls-1" d="M153.8,23.5c.17,0,.31-.14.31-.31v-1.99c0-.18-.14-.31-.3-.31l-9.16-.02c-.16,0-.3.13-.3.31v1.99c0,.16.14.31.3.31l9.16.02Z"/><path class="cls-1" d="M129.01,23.72c.31,0,.57-.11.57-.24v-1.54c0-.14-.26-.24-.57-.24l-16.77-.03c-.32,0-.57.1-.57.23v1.54c0,.13.25.24.57.24l16.77.03Z"/></g></g></svg>